<svg xmlns="http://www.w3.org/2000/svg" fill="none" viewBox="0 0 128 128">
    <!-- Open cookbook -->
    <path class="ink" fill-rule="evenodd" d="M60 54C51 45.5 36 42.5 19 45.8c-1.4.3-2.5 1.5-2.5 3v51c0 1.9 1.8 3.3 3.6 3 14.5-2.6 28-.1 36.4 7.7 2 1.8 5 1.8 7 0 8.4-7.8 21.9-10.3 36.4-7.7 1.8.3 3.6-1.1 3.6-3v-51c0-1.5-1.1-2.7-2.5-3C84 42.5 69 45.5 60 54Zm-1 8.4v43.4c-8.8-5-20-6.8-32.5-5.5V52.8c13.4-2 24.9 1 32.5 9.6Zm10 43.4V62.4c7.6-8.6 19.1-11.6 32.5-9.6v47.5c-12.5-1.3-23.7.5-32.5 5.5Z"/>
    <!-- Steam -->
    <g class="steam" stroke-linecap="round" stroke-width="8">
        <path d="M45 36c-5-7 5-12 0-20"/>
        <path d="M64 31c-5-7 5-12 0-20"/>
        <path d="M83 36c-5-7 5-12 0-20"/>
    </g>
    <style>
        .ink { fill: #000; }
        .steam path { stroke: #000; }
        @media (prefers-color-scheme: dark) {
            .ink { fill: #FFF; }
            .steam path { stroke: #FFF; }
        }
    </style>
</svg>
